<svg xmlns="http://www.w3.org/2000/svg" viewBox="0 0 950 520" font-family="Inter,system-ui,sans-serif">
<rect width="950" height="520" fill="#0d1117" rx="12"/>
<text x="475" y="32" fill="#e6edf3" font-size="18" font-weight="700" text-anchor="middle">Cross-Model Architecture Taxonomy - 6 Frontier LLMs</text>
<rect x="35.0" y="55" width="280" height="200" rx="10" fill="#3498db" fill-opacity="0.1" stroke="#3498db" stroke-width="1.5"/>
<text x="175.0" y="79" fill="#3498db" font-size="14" font-weight="700" text-anchor="middle">OpenHermes 2.5</text>
<text x="175.0" y="97" fill="#e6edf3" font-size="10" text-anchor="middle" opacity="0.6">7B Parameters</text>
<text x="50.0" y="120" fill="#e6edf3" font-size="10" opacity="0.8">Architecture: Multi-Hub</text>
<text x="50.0" y="140" fill="#e6edf3" font-size="10" opacity="0.8">Peak Z-Score: 37.4</text>
<text x="50.0" y="160" fill="#e6edf3" font-size="10" opacity="0.8">Shared Hubs: 5</text>
<text x="50.0" y="180" fill="#e6edf3" font-size="10" opacity="0.8">cDoS Risk: High</text>
<text x="50.0" y="200" fill="#e6edf3" font-size="10" opacity="0.8">Key Node: [Moinesmerc]</text>
<rect x="50.0" y="225" width="250" height="8" rx="4" fill="#e6edf3" fill-opacity="0.1"/>
<rect x="50.0" y="225" width="187.5" height="8" rx="4" fill="#f85149" opacity="0.8"/>
<text x="300.0" y="220" fill="#f85149" font-size="8" text-anchor="end">Risk</text>
<rect x="335.0" y="55" width="280" height="200" rx="10" fill="#9b59b6" fill-opacity="0.1" stroke="#9b59b6" stroke-width="1.5"/>
<text x="475.0" y="79" fill="#9b59b6" font-size="14" font-weight="700" text-anchor="middle">Qwen 32B Seq</text>
<text x="475.0" y="97" fill="#e6edf3" font-size="10" text-anchor="middle" opacity="0.6">32B Parameters</text>
<text x="350.0" y="120" fill="#e6edf3" font-size="10" opacity="0.8">Architecture: Scaled Hub</text>
<text x="350.0" y="140" fill="#e6edf3" font-size="10" opacity="0.8">Peak Z-Score: 11.98</text>
<text x="350.0" y="160" fill="#e6edf3" font-size="10" opacity="0.8">Shared Hubs: 10</text>
<text x="350.0" y="180" fill="#e6edf3" font-size="10" opacity="0.8">cDoS Risk: Moderate</text>
<text x="350.0" y="200" fill="#e6edf3" font-size="10" opacity="0.8">Key Node: [Franken]</text>
<rect x="350.0" y="225" width="250" height="8" rx="4" fill="#e6edf3" fill-opacity="0.1"/>
<rect x="350.0" y="225" width="125.0" height="8" rx="4" fill="#d29922" opacity="0.8"/>
<text x="600.0" y="220" fill="#d29922" font-size="8" text-anchor="end">Risk</text>
<rect x="635.0" y="55" width="280" height="200" rx="10" fill="#e74c3c" fill-opacity="0.1" stroke="#e74c3c" stroke-width="1.5"/>
<text x="775.0" y="79" fill="#e74c3c" font-size="14" font-weight="700" text-anchor="middle">Qwen Mixed 32B</text>
<text x="775.0" y="97" fill="#e6edf3" font-size="10" text-anchor="middle" opacity="0.6">32B Parameters</text>
<text x="650.0" y="120" fill="#e6edf3" font-size="10" opacity="0.8">Architecture: Unfiltered</text>
<text x="650.0" y="140" fill="#e6edf3" font-size="10" opacity="0.8">Peak Z-Score: 11.9</text>
<text x="650.0" y="160" fill="#e6edf3" font-size="10" opacity="0.8">Shared Hubs: 10</text>
<text x="650.0" y="180" fill="#e6edf3" font-size="10" opacity="0.8">cDoS Risk: Extreme</text>
<text x="650.0" y="200" fill="#e6edf3" font-size="10" opacity="0.8">Key Node: [Franken]</text>
<rect x="650.0" y="225" width="250" height="8" rx="4" fill="#e6edf3" fill-opacity="0.1"/>
<rect x="650.0" y="225" width="250.0" height="8" rx="4" fill="#f85149" opacity="0.8"/>
<text x="900.0" y="220" fill="#f85149" font-size="8" text-anchor="end">Risk</text>
<rect x="35.0" y="275" width="280" height="200" rx="10" fill="#e67e22" fill-opacity="0.1" stroke="#e67e22" stroke-width="1.5"/>
<text x="175.0" y="299" fill="#e67e22" font-size="14" font-weight="700" text-anchor="middle">Aya Expanse 32B</text>
<text x="175.0" y="317" fill="#e6edf3" font-size="10" text-anchor="middle" opacity="0.6">32B Parameters</text>
<text x="50.0" y="340" fill="#e6edf3" font-size="10" opacity="0.8">Architecture: Omni-Hub</text>
<text x="50.0" y="360" fill="#e6edf3" font-size="10" opacity="0.8">Peak Z-Score: 23.64</text>
<text x="50.0" y="380" fill="#e6edf3" font-size="10" opacity="0.8">Shared Hubs: 1</text>
<text x="50.0" y="400" fill="#e6edf3" font-size="10" opacity="0.8">cDoS Risk: Critical</text>
<text x="50.0" y="420" fill="#e6edf3" font-size="10" opacity="0.8">Key Node: [Brisamong]</text>
<rect x="50.0" y="445" width="250" height="8" rx="4" fill="#e6edf3" fill-opacity="0.1"/>
<rect x="50.0" y="445" width="250.0" height="8" rx="4" fill="#f85149" opacity="0.8"/>
<text x="300.0" y="440" fill="#f85149" font-size="8" text-anchor="end">Risk</text>
<rect x="335.0" y="275" width="280" height="200" rx="10" fill="#f85149" fill-opacity="0.1" stroke="#f85149" stroke-width="1.5"/>
<text x="475.0" y="299" fill="#f85149" font-size="14" font-weight="700" text-anchor="middle">Reflection 8B</text>
<text x="475.0" y="317" fill="#e6edf3" font-size="10" text-anchor="middle" opacity="0.6">8B Parameters</text>
<text x="350.0" y="340" fill="#e6edf3" font-size="10" opacity="0.8">Architecture: Hyper-Focus</text>
<text x="350.0" y="360" fill="#e6edf3" font-size="10" opacity="0.8">Peak Z-Score: 23.04</text>
<text x="350.0" y="380" fill="#e6edf3" font-size="10" opacity="0.8">Shared Hubs: 1</text>
<text x="350.0" y="400" fill="#e6edf3" font-size="10" opacity="0.8">cDoS Risk: Critical</text>
<text x="350.0" y="420" fill="#e6edf3" font-size="10" opacity="0.8">Key Node: [atteanca]</text>
<rect x="350.0" y="445" width="250" height="8" rx="4" fill="#e6edf3" fill-opacity="0.1"/>
<rect x="350.0" y="445" width="250.0" height="8" rx="4" fill="#f85149" opacity="0.8"/>
<text x="600.0" y="440" fill="#f85149" font-size="8" text-anchor="end">Risk</text>
<rect x="635.0" y="275" width="280" height="200" rx="10" fill="#3fb950" fill-opacity="0.1" stroke="#3fb950" stroke-width="1.5"/>
<text x="775.0" y="299" fill="#3fb950" font-size="14" font-weight="700" text-anchor="middle">Aya 23 35B</text>
<text x="775.0" y="317" fill="#e6edf3" font-size="10" text-anchor="middle" opacity="0.6">35B Parameters</text>
<text x="650.0" y="340" fill="#e6edf3" font-size="10" opacity="0.8">Architecture: Dual-Hub</text>
<text x="650.0" y="360" fill="#e6edf3" font-size="10" opacity="0.8">Peak Z-Score: 10.16</text>
<text x="650.0" y="380" fill="#e6edf3" font-size="10" opacity="0.8">Shared Hubs: 2</text>
<text x="650.0" y="400" fill="#e6edf3" font-size="10" opacity="0.8">cDoS Risk: Low</text>
<text x="650.0" y="420" fill="#e6edf3" font-size="10" opacity="0.8">Key Node: [eriecabe]</text>
<rect x="650.0" y="445" width="250" height="8" rx="4" fill="#e6edf3" fill-opacity="0.1"/>
<rect x="650.0" y="445" width="62.5" height="8" rx="4" fill="#3fb950" opacity="0.8"/>
<text x="900.0" y="440" fill="#3fb950" font-size="8" text-anchor="end">Risk</text>
</svg>